<?xml version="1.0" encoding="UTF-8"?>
<svg xmlns="http://www.w3.org/2000/svg" width="800" height="800" viewBox="0 0 800 800" role="img" aria-label="Tea: Premium Assam Tea Powder">
  <title>Tea: Premium Assam Tea Powder</title>
  <defs>
    <linearGradient id="bg" x1="0" y1="0" x2="1" y2="1">
      <stop offset="0" stop-color="#065f46"/>
      <stop offset="1" stop-color="#22c55e"/>
    </linearGradient>
    <filter id="shadow" x="-20%" y="-20%" width="140%" height="140%">
      <feDropShadow dx="0" dy="14" stdDeviation="18" flood-color="#000" flood-opacity=".28"/>
    </filter>
  </defs>

  <rect width="800" height="800" rx="56" fill="url(#bg)"/>

  <g opacity=".10">
    <circle cx="140" cy="170" r="120" fill="#fff"/>
    <circle cx="690" cy="130" r="90" fill="#fff"/>
    <circle cx="640" cy="690" r="150" fill="#fff"/>
  </g>

  <g filter="url(#shadow)">
    <rect x="120" y="140" width="560" height="400" rx="44" fill="#fff" fill-opacity=".14" stroke="#fff" stroke-opacity=".28" stroke-width="2"/>
    
      <g transform="translate(400 335)" fill="none" stroke="#ffffff" stroke-width="14" stroke-linecap="round" stroke-linejoin="round" opacity=".92">
        <path d="M0 150c0-126 104-206 196-206-14 84-62 150-127 179-22 10-45 19-69 27Z"/>
        <path d="M0 150c0-100-80-162-160-162 9 67 47 120 99 143 20 9 40 15 61 19Z"/>
        <path d="M0 150V-40"/>
      </g>
  </g>

  <text x="92" y="170" fill="#fff" fill-opacity=".92" font-family="Inter, ui-sans-serif, system-ui, -apple-system, Segoe UI, Roboto, Helvetica, Arial" font-size="18" letter-spacing=".24">TEA</text>

  <text x="92" y="645" fill="#ffffff" font-family="Poppins, ui-sans-serif, system-ui, -apple-system, Segoe UI, Roboto, Helvetica, Arial" font-size="54" font-weight="700" letter-spacing=".2">Premium Assam</text>
  <text x="92" y="708" fill="#ffffff" fill-opacity=".92" font-family="Poppins, ui-sans-serif, system-ui, -apple-system, Segoe UI, Roboto, Helvetica, Arial" font-size="54" font-weight="700" letter-spacing=".2">Tea Powder</text>

  <text x="92" y="756" fill="#ffffff" fill-opacity=".78" font-family="Inter, ui-sans-serif, system-ui, -apple-system, Segoe UI, Roboto, Helvetica, Arial" font-size="18">Stock image</text>
</svg>
